<?xml version="1.0" encoding="utf-8"?>
<svg width="512px" height="512px" viewBox="0 0 512 512" version="1.1" xmlns:xlink="http://www.w3.org/1999/xlink" xmlns="http://www.w3.org/2000/svg">
  <g id="Group-60">
    <path d="M0 0L512 0L512 512L0 512L0 0Z" id="Rectangle" fill="#0C376D" fill-rule="evenodd" stroke="none" />
    <path d="M51.2 256C51.2 142.892 142.892 51.2 256 51.2C369.108 51.2 460.8 142.892 460.8 256C460.8 369.108 369.108 460.8 256 460.8C142.892 460.8 51.2 369.108 51.2 256Z" id="Oval" fill="#0C376D" fill-rule="evenodd" stroke="none" />
    <g id="Icon_Rain_wBG" transform="translate(76.458664 87.38133)">
      <path d="M0 0L349.542 0L349.542 349.542L0 349.542L0 0Z" id="Rectangle-4" fill="none" fill-rule="evenodd" stroke="none" />
      <g id="Cloud1" transform="translate(0.6826706 6.143997)">
        <path d="M81.92 83.9721C81.92 37.5956 119.516 0 165.892 0C212.269 0 249.864 37.5956 249.864 83.9721C249.864 130.349 212.269 167.944 165.892 167.944C119.516 167.944 81.92 130.349 81.92 83.9721Z" id="Oval" fill="#C7B4EB" fill-rule="evenodd" stroke="none" />
        <path d="M193.877 121.177C193.877 78.7596 228.264 44.3733 270.681 44.3733C313.099 44.3733 347.485 78.7596 347.485 121.177C347.485 163.595 313.099 197.981 270.681 197.981C228.264 197.981 193.877 163.595 193.877 121.177Z" id="Oval-2" fill="#C7B4EB" fill-rule="evenodd" stroke="none" />
        <path d="M0 136.878C0 103.132 28.1203 75.776 62.8084 75.776C97.4965 75.776 125.617 103.132 125.617 136.878C125.617 170.623 97.4965 197.979 62.8084 197.979C28.1203 197.979 0 170.623 0 136.878Z" id="Oval-3" fill="#C7B4EB" fill-rule="evenodd" stroke="none" />
        <path d="M62.8053 136.533L270.346 136.533L270.346 197.976L62.8053 197.976L62.8053 136.533Z" id="Rectangle-4" fill="#C7B4EB" fill-rule="evenodd" stroke="none" />
      </g>
      <g id="Cloud2" transform="matrix(-1 0 0 1 343.40143 75.776)">
        <path d="M59.0646 60.5178C59.0646 27.0947 86.1719 0 119.61 0C153.049 0 180.156 27.0947 180.156 60.5178C180.156 93.9409 153.049 121.036 119.61 121.036C86.1719 121.036 59.0646 93.9409 59.0646 60.5178Z" id="Oval" fill="#7551B5" fill-rule="evenodd" stroke="none" />
        <path d="M139.789 87.3311C139.789 56.7612 164.582 31.9794 195.166 31.9794C225.75 31.9794 250.543 56.7612 250.543 87.3311C250.543 117.901 225.75 142.683 195.166 142.683C164.582 142.683 139.789 117.901 139.789 87.3311Z" id="Oval-2" fill="#7551B5" fill-rule="evenodd" stroke="none" />
        <path d="M0 98.6463C0 74.3262 20.2753 54.611 45.2862 54.611C70.2971 54.611 90.5724 74.3262 90.5724 98.6463C90.5724 122.966 70.2971 142.682 45.2862 142.682C20.2753 142.682 0 122.966 0 98.6463Z" id="Oval-3" fill="#7551B5" fill-rule="evenodd" stroke="none" />
        <path d="M45.2811 98.3982L194.922 98.3982L194.922 142.68L45.2811 142.68L45.2811 98.3982Z" id="Rectangle-4" fill="#7551B5" fill-rule="evenodd" stroke="none" />
      </g>
      <g id="Drops" transform="translate(78.045334 238.25066)">
        <g id="Group-35">
          <path d="M1.64021 43.9453C-2.12563 36.5544 0.813049 27.5101 8.20393 23.7442C15.5948 19.9784 24.6391 22.9171 28.405 30.308C32.1708 37.6989 29.2321 46.7432 21.8413 50.509C14.4504 54.2748 5.40605 51.3362 1.64021 43.9453Z" id="Oval-2" fill="#C7B4EB" fill-rule="evenodd" stroke="none" />
          <path d="M25.1153 0L3.3469 27.6886L1.20383 33.1853L29.1947 41.3778L29.9463 35.3953L25.1153 0Z" id="Vector-4" fill="#C7B4EB" fill-rule="evenodd" stroke="none" />
        </g>
        <g id="Group-52" transform="translate(88 0)">
          <path d="M1.64021 43.9453C-2.12563 36.5544 0.813049 27.5101 8.20393 23.7442C15.5948 19.9784 24.6391 22.9171 28.405 30.308C32.1708 37.6989 29.2321 46.7432 21.8413 50.509C14.4504 54.2748 5.40605 51.3362 1.64021 43.9453Z" id="Oval-2" fill="#C7B4EB" fill-rule="evenodd" stroke="none" />
          <path d="M25.1153 0L3.3469 27.6886L1.20383 33.1853L29.1947 41.3778L29.9463 35.3953L25.1153 0Z" id="Vector-4" fill="#C7B4EB" fill-rule="evenodd" stroke="none" />
        </g>
        <g id="Group-54" transform="translate(38 53)">
          <path d="M1.64021 43.9453C-2.12563 36.5544 0.813049 27.5101 8.20393 23.7442C15.5948 19.9784 24.6391 22.9171 28.405 30.308C32.1708 37.6989 29.2321 46.7432 21.8413 50.509C14.4504 54.2748 5.40605 51.3362 1.64021 43.9453Z" id="Oval-2" fill="#C7B4EB" fill-rule="evenodd" stroke="none" />
          <path d="M25.1153 0L3.3469 27.6886L1.20383 33.1853L29.1947 41.3778L29.9463 35.3953L25.1153 0Z" id="Vector-4" fill="#C7B4EB" fill-rule="evenodd" stroke="none" />
        </g>
        <g id="Group-55" transform="translate(129 53)">
          <path d="M1.64021 43.9453C-2.12563 36.5544 0.813049 27.5101 8.20393 23.7442C15.5948 19.9784 24.6391 22.9171 28.405 30.308C32.1708 37.6989 29.2321 46.7432 21.8413 50.509C14.4504 54.2748 5.40605 51.3362 1.64021 43.9453Z" id="Oval-2" fill="#C7B4EB" fill-rule="evenodd" stroke="none" />
          <path d="M25.1153 0L3.3469 27.6886L1.20383 33.1853L29.1947 41.3778L29.9463 35.3953L25.1153 0Z" id="Vector-4" fill="#C7B4EB" fill-rule="evenodd" stroke="none" />
        </g>
        <g id="Group-53" transform="translate(180 0)">
          <path d="M1.64021 43.9453C-2.12563 36.5544 0.813049 27.5101 8.20393 23.7442C15.5948 19.9784 24.6391 22.9171 28.405 30.308C32.1708 37.6989 29.2321 46.7432 21.8413 50.509C14.4504 54.2748 5.40605 51.3362 1.64021 43.9453Z" id="Oval-2" fill="#C7B4EB" fill-rule="evenodd" stroke="none" />
          <path d="M25.1153 0L3.3469 27.6886L1.20383 33.1853L29.1947 41.3778L29.9463 35.3953L25.1153 0Z" id="Vector-4" fill="#C7B4EB" fill-rule="evenodd" stroke="none" />
        </g>
      </g>
    </g>
  </g>
</svg>