<?xml version="1.0" encoding="utf-8"?>
<svg width="170" height="170" viewBox="0 0 170 170" fill="none" xmlns="http://www.w3.org/2000/svg">
  <g>
    <path d="M9 0C11.7618 0 14 2.2382 14 5L14 16C14 18.7618 11.7618 21 9 21L5 21C2.2382 21 0 18.7618 0 16L0 5C0 2.2382 2.2382 0 5 0L9 0Z" fill="#000000" transform="translate(78 0)" />
    <path d="M9 0C11.7618 0 14 2.2382 14 5L14 16C14 18.7618 11.7618 21 9 21L5 21C2.2382 21 0 18.7618 0 16L0 5C0 2.2382 2.2382 0 5 0L9 0Z" fill="#000000" transform="translate(78 149)" />
    <path d="M9 0C11.7618 0 14 2.2382 14 5L14 16C14 18.7618 11.7618 21 9 21L5 21C2.23819 21 0 18.7618 0 16L0 5C0 2.2382 2.23819 0 5 0L9 0Z" fill="#000000" transform="matrix(0 1 -1 0 170 79)" />
    <path d="M9 0C11.7618 0 14 2.2382 14 5L14 16C14 18.7618 11.7618 21 9 21L5 21C2.2382 21 0 18.7618 0 16L0 5C0 2.2382 2.2382 0 5 0L9 0Z" fill="#000000" transform="matrix(0 1 -1 0 21 79)" />
    <g transform="translate(16 16)">
      <path d="M0 69C0 30.8923 30.8923 0 69 0C107.108 0 138 30.8923 138 69C138 107.108 107.108 138 69 138C30.8923 138 0 107.108 0 69Z" />
      <path d="M69 0C30.8923 0 0 30.8923 0 69C0 107.108 30.8923 138 69 138C107.108 138 138 107.108 138 69C138 30.8923 107.108 0 69 0ZM27.2807 110.719Q10 93.4386 10 69Q10 44.5614 27.2807 27.2807Q44.5614 10 69 10Q93.4386 10 110.719 27.2807Q128 44.5614 128 69Q128 93.4386 110.719 110.719Q93.4386 128 69 128Q44.5614 128 27.2807 110.719Z" fill="#000000" fill-rule="evenodd" />
    </g>
    <path d="M0 36.5C0 16.3416 16.3416 0 36.5 0C56.6584 0 73 16.3416 73 36.5C73 56.6584 56.6584 73 36.5 73C16.3416 73 0 56.6584 0 36.5Z" fill="#000000" fill-rule="evenodd" transform="translate(49 50)" />
  </g>
</svg>