<?xml version="1.0" encoding="utf-8"?>
<svg width="92px" height="164px" viewBox="0 0 92 164" version="1.1" xmlns:xlink="http://www.w3.org/1999/xlink" xmlns="http://www.w3.org/2000/svg">
  <g id="Pin">
    <path d="M46.4292 164L4.45333 65.8395C-3.28784 49.5398 -1.00063 29.4843 11.8156 15.2358C28.8148 -3.66302 57.9002 -5.18883 76.7797 11.8277C91.4683 25.0669 95.6516 45.6296 88.7793 63.0065L88.778 63.0159L88.7325 63.1244C88.5329 63.6248 88.3242 64.1226 88.1063 64.6175L46.4292 164Z" id="pin_shape" fill="#7551B5" fill-rule="evenodd" stroke="none" />
    <path d="M46.3995 156.001L7.14858 64.3948C-0.0708737 49.1938 2.07217 30.4991 14.0448 17.2149C29.9353 -0.416348 57.1239 -1.83979 74.7722 14.0354C88.5045 26.3881 92.4143 45.5748 85.9868 61.7876L85.9864 61.7901L85.9748 61.8178C85.7697 62.334 85.5541 62.8471 85.3281 63.3569L46.3995 156.001Z" id="pin_shape" fill="#C7B4EB" fill-rule="evenodd" stroke="none" />
    <path d="M27.9999 44.9996C27.9999 35.0585 36.0588 26.9996 46 26.9996C55.9411 26.9996 64 35.0585 64 44.9996C64 54.9408 55.9411 62.9996 46 62.9996C36.0588 62.9996 27.9999 54.9408 27.9999 44.9996Z" id="Oval" fill="#7551B5" fill-rule="evenodd" stroke="none" />
  </g>
</svg>