<?xml version="1.0" encoding="utf-8"?>
<svg width="96.000244px" height="172.00037px" viewBox="0 0 96.000244 172.00037" version="1.1" xmlns:xlink="http://www.w3.org/1999/xlink" xmlns="http://www.w3.org/2000/svg">
  <g id="Pin">
    <path d="M48.4489 172L4.65484 69.0679C-3.43235 51.9701 -1.04848 30.9274 12.3294 15.979C30.0677 -3.84172 60.4178 -5.44197 80.1182 12.4047C95.4445 26.2888 99.8101 47.8527 92.641 66.0766L92.6391 66.0901L92.5715 66.2522C92.3755 66.7446 92.1711 67.2346 91.9582 67.722L48.4489 172Z" id="pin_shape" fill="#7551B5" fill-rule="evenodd" stroke="none" />
    <path d="M48.3993 158.004L9.14825 66.3978C1.9288 51.1967 4.07185 32.502 16.0445 19.2179C31.9351 1.58664 59.1237 0.163197 76.772 16.0384C90.5044 28.3911 94.4141 47.5779 87.9866 63.7906L87.9863 63.793L87.9749 63.82C87.7697 64.3367 87.5539 64.8504 87.3276 65.3606L48.3993 158.004Z" id="pin_shape" fill="#C7B4EB" fill-rule="evenodd" stroke="none" />
    <path d="M29.9998 48C29.9998 38.0588 38.0587 30 47.9998 30C57.941 30 65.9999 38.0588 65.9999 48C65.9999 57.9411 57.941 66 47.9998 66C38.0587 66 29.9998 57.9411 29.9998 48Z" id="Oval" fill="#7551B5" fill-rule="evenodd" stroke="none" />
  </g>
</svg>