<?xml version="1.0" encoding="utf-8"?>
<svg width="95" height="95" viewBox="0 0 95 95" fill="none" xmlns="http://www.w3.org/2000/svg">
  <g fill="#4285F4" fill-rule="evenodd" transform="translate(10 10)">
    <path id="Oval" d="M0 37.5C0 16.7893 16.7893 0 37.5 0C58.2107 0 75 16.7893 75 37.5C75 58.2107 58.2107 75 37.5 75C16.7893 75 0 58.2107 0 37.5Z" />
    <path d="M3.91235 3.91248Q-9.99976 17.8248 -10 37.5Q-10 57.1752 3.91235 71.0875Q17.825 85 37.5 85Q57.1753 85 71.0876 71.0875Q85 57.1752 85 37.5Q85 17.8249 71.0876 3.91248Q57.175 -10 37.5 -10Q17.825 -10 3.91235 3.91248ZM37.5 0C16.7893 0 0 16.7893 0 37.5C0 58.2107 16.7893 75 37.5 75C58.2107 75 75 58.2107 75 37.5C75 16.7893 58.2107 0 37.5 0Z" fill="#FFFFFF" fill-rule="evenodd" />
  </g>
</svg>